<svg width="157" height="94" viewBox="0 0 157 94" fill="none" xmlns="http://www.w3.org/2000/svg">
<path d="M131.268 36.431C131.268 37.5911 131.114 38.7103 130.807 39.7884C130.511 40.8548 130.086 41.8567 129.53 42.7942C128.974 43.72 128.312 44.5696 127.543 45.3431C126.775 46.1048 125.917 46.761 124.971 47.3118C124.025 47.8626 123.008 48.2903 121.921 48.595C120.845 48.888 119.721 49.0345 118.551 49.0345H110.888V23.8275H118.551C119.721 23.8275 120.845 23.9798 121.921 24.2845C123.008 24.5775 124.025 24.9993 124.971 25.5501C125.917 26.1009 126.775 26.763 127.543 27.5364C128.312 28.2982 128.974 29.1478 129.53 30.0853C130.086 31.011 130.511 32.013 130.807 33.0911C131.114 34.1575 131.268 35.2708 131.268 36.431ZM126.177 36.431C126.177 35.388 125.976 34.4095 125.574 33.4954C125.184 32.5814 124.64 31.7845 123.943 31.1048C123.257 30.4134 122.447 29.8685 121.513 29.47C120.59 29.0716 119.603 28.8724 118.551 28.8724H116.014V43.9896H118.551C119.603 43.9896 120.59 43.7962 121.513 43.4095C122.447 43.011 123.257 42.472 123.943 41.7923C124.64 41.1009 125.184 40.2982 125.574 39.3841C125.976 38.4583 126.177 37.4739 126.177 36.431Z" fill="white"/>
<path d="M155 41.4759C155 42.5189 154.799 43.4974 154.397 44.4114C153.995 45.3255 153.445 46.1282 152.747 46.8196C152.062 47.4993 151.258 48.0384 150.335 48.4368C149.413 48.8353 148.426 49.0345 147.373 49.0345H134.656V23.8275H147.373C148.426 23.8275 149.413 24.0267 150.335 24.4251C151.258 24.8235 152.062 25.3685 152.747 26.0599C153.445 26.7396 153.995 27.5364 154.397 28.4505C154.799 29.3646 155 30.3431 155 31.386C155 31.8548 154.935 32.3353 154.805 32.8274C154.675 33.3196 154.492 33.7942 154.255 34.2513C154.019 34.7083 153.735 35.1243 153.404 35.4993C153.073 35.8743 152.706 36.1849 152.304 36.431C152.718 36.6536 153.09 36.9583 153.421 37.345C153.753 37.72 154.036 38.136 154.273 38.5931C154.509 39.0501 154.687 39.5306 154.805 40.0345C154.935 40.5267 155 41.0071 155 41.4759ZM139.746 43.9896H147.373C147.728 43.9896 148.059 43.9251 148.366 43.7962C148.674 43.6673 148.94 43.4915 149.165 43.2689C149.401 43.0345 149.584 42.7649 149.714 42.4603C149.844 42.1556 149.91 41.8274 149.91 41.4759C149.91 41.1243 149.844 40.7962 149.714 40.4915C149.584 40.1868 149.401 39.9232 149.165 39.7005C148.94 39.4661 148.674 39.2845 148.366 39.1556C148.059 39.0267 147.728 38.9622 147.373 38.9622H139.746V43.9896ZM139.746 33.9173H147.373C147.728 33.9173 148.059 33.8528 148.366 33.7239C148.674 33.595 148.94 33.4192 149.165 33.1966C149.401 32.9622 149.584 32.6927 149.714 32.388C149.844 32.0716 149.91 31.7376 149.91 31.386C149.91 31.0345 149.844 30.7064 149.714 30.4017C149.584 30.097 149.401 29.8333 149.165 29.6107C148.94 29.3763 148.674 29.1946 148.366 29.0657C148.059 28.9368 147.728 28.8724 147.373 28.8724H139.746V33.9173Z" fill="white"/>
<path fill-rule="evenodd" clip-rule="evenodd" d="M0 59.5862H154.695V65.7931C154.695 69.2211 150.63 72 145.614 72H9.08131C4.06584 72 0 69.2211 0 65.7931V59.5862ZM18.1626 62.5826H31.3149C33.0443 62.5826 34.4463 63.5409 34.4463 64.723V66.8633C34.4463 68.0453 33.0443 69.0036 31.3149 69.0036H18.1626C16.4331 69.0036 15.0311 68.0453 15.0311 66.8633V64.723C15.0311 63.5409 16.4331 62.5826 18.1626 62.5826ZM66.3875 62.5826H53.2353C51.5058 62.5826 50.1038 63.5409 50.1038 64.723V66.8633C50.1038 68.0453 51.5058 69.0036 53.2353 69.0036H66.3875C68.117 69.0036 69.519 68.0453 69.519 66.8633V64.723C69.519 63.5409 68.117 62.5826 66.3875 62.5826ZM88.3079 62.5826H101.46C103.19 62.5826 104.592 63.5409 104.592 64.723V66.8633C104.592 68.0453 103.19 69.0036 101.46 69.0036H88.3079C86.5784 69.0036 85.1764 68.0453 85.1764 66.8633V64.723C85.1764 63.5409 86.5784 62.5826 88.3079 62.5826ZM136.533 62.5826H123.381C121.651 62.5826 120.249 63.5409 120.249 64.723V66.8633C120.249 68.0453 121.651 69.0036 123.381 69.0036H136.533C138.262 69.0036 139.664 68.0453 139.664 66.8633V64.723C139.664 63.5409 138.262 62.5826 136.533 62.5826Z" fill="white"/>
<path fill-rule="evenodd" clip-rule="evenodd" d="M0 12.4138H154.695V6.2069C154.695 2.77892 150.63 0 145.614 0H9.08131C4.06584 0 0 2.77892 0 6.2069V12.4138ZM18.1626 9.41736H31.3149C33.0443 9.41736 34.4463 8.45911 34.4463 7.27705V5.13674C34.4463 3.95468 33.0443 2.99643 31.3149 2.99643H18.1626C16.4331 2.99643 15.0311 3.95468 15.0311 5.13674V7.27705C15.0311 8.45911 16.4331 9.41736 18.1626 9.41736ZM66.3875 9.41736H53.2353C51.5058 9.41736 50.1038 8.45911 50.1038 7.27705V5.13674C50.1038 3.95468 51.5058 2.99643 53.2353 2.99643H66.3875C68.117 2.99643 69.519 3.95468 69.519 5.13674V7.27705C69.519 8.45911 68.117 9.41736 66.3875 9.41736ZM88.3079 9.41736H101.46C103.19 9.41736 104.592 8.45911 104.592 7.27705V5.13674C104.592 3.95468 103.19 2.99643 101.46 2.99643H88.3079C86.5784 2.99643 85.1764 3.95468 85.1764 5.13674V7.27705C85.1764 8.45911 86.5784 9.41736 88.3079 9.41736ZM136.533 9.41736H123.381C121.651 9.41736 120.249 8.45911 120.249 7.27705V5.13674C120.249 3.95468 121.651 2.99643 123.381 2.99643H136.533C138.262 2.99643 139.664 3.95468 139.664 5.13674V7.27705C139.664 8.45911 138.262 9.41736 136.533 9.41736Z" fill="white"/>
<path d="M25.4322 49.4364H20.3564V30.8182C20.3564 30.4545 20.2855 30.1152 20.1435 29.8C20.0133 29.4848 19.8299 29.2121 19.5933 28.9818C19.3685 28.7394 19.1023 28.5515 18.7947 28.4182C18.487 28.2848 18.1557 28.2182 17.8008 28.2182C17.4458 28.2182 17.1146 28.2848 16.8069 28.4182C16.4993 28.5515 16.2272 28.7394 15.9905 28.9818C15.7657 29.2121 15.5883 29.4848 15.4581 29.8C15.328 30.1152 15.2629 30.4545 15.2629 30.8182V49.4364H10.1693V30.8182C10.1693 30.4545 10.1043 30.1152 9.97412 29.8C9.84398 29.4848 9.66059 29.2121 9.42395 28.9818C9.19915 28.7394 8.93294 28.5515 8.62531 28.4182C8.31769 28.2848 7.9864 28.2182 7.63145 28.2182C7.2765 28.2182 6.94521 28.2848 6.63758 28.4182C6.32996 28.5515 6.05783 28.7394 5.8212 28.9818C5.5964 29.2121 5.41892 29.4848 5.28877 29.8C5.15862 30.1152 5.09355 30.4545 5.09355 30.8182V49.4364H0V30.8182C0 29.7394 0.195223 28.7273 0.585669 27.7818C0.987947 26.8242 1.53221 25.9939 2.21844 25.2909C2.91651 24.5758 3.72699 24.0182 4.64986 23.6182C5.58456 23.2061 6.57843 23 7.63145 23C8.57798 23 9.48903 23.1758 10.3646 23.5273C11.2401 23.8667 12.0269 24.3636 12.725 25.0182C13.4231 24.3636 14.204 23.8667 15.0677 23.5273C15.9432 23.1758 16.8543 23 17.8008 23C18.8538 23 19.8418 23.2061 20.7646 23.6182C21.6993 24.0182 22.5098 24.5758 23.1961 25.2909C23.8941 25.9939 24.4384 26.8242 24.8288 27.7818C25.2311 28.7273 25.4322 29.7394 25.4322 30.8182V49.4364Z" fill="#81BECB"/>
<path d="M54.9287 36.5091C54.9287 37.7455 54.769 38.9394 54.4495 40.0909C54.1419 41.2303 53.7041 42.303 53.1362 43.3091C52.5683 44.303 51.882 45.2121 51.0775 46.0364C50.2729 46.8606 49.3855 47.5697 48.4153 48.1636C47.4451 48.7455 46.398 49.1939 45.274 49.5091C44.15 49.8364 42.9846 50 41.7777 50C40.5709 50 39.4055 49.8364 38.2815 49.5091C37.1693 49.1939 36.1222 48.7455 35.1402 48.1636C34.17 47.5697 33.2826 46.8606 32.478 46.0364C31.6735 45.2121 30.9813 44.303 30.4016 43.3091C29.8336 42.303 29.3899 41.2303 29.0705 40.0909C28.7629 38.9394 28.6091 37.7455 28.6091 36.5091C28.6091 35.2727 28.7629 34.0788 29.0705 32.9273C29.3899 31.7758 29.8336 30.703 30.4016 29.7091C30.9813 28.7152 31.6735 27.8061 32.478 26.9818C33.2826 26.1576 34.17 25.4545 35.1402 24.8727C36.1222 24.2909 37.1693 23.8424 38.2815 23.5273C39.4055 23.2 40.5709 23.0364 41.7777 23.0364C42.9846 23.0364 44.15 23.2 45.274 23.5273C46.398 23.8424 47.4451 24.2909 48.4153 24.8727C49.3855 25.4545 50.2729 26.1576 51.0775 26.9818C51.882 27.8061 52.5683 28.7152 53.1362 29.7091C53.7041 30.703 54.1419 31.7758 54.4495 32.9273C54.769 34.0788 54.9287 35.2727 54.9287 36.5091ZM49.8706 36.5091C49.8706 35.3697 49.6577 34.297 49.2317 33.2909C48.8058 32.2727 48.226 31.3939 47.4925 30.6545C46.7707 29.903 45.9129 29.3091 44.9191 28.8727C43.937 28.4364 42.8899 28.2182 41.7777 28.2182C40.6537 28.2182 39.6007 28.4364 38.6187 28.8727C37.6366 29.3091 36.7788 29.903 36.0453 30.6545C35.3117 31.3939 34.732 32.2727 34.306 33.2909C33.8801 34.297 33.6671 35.3697 33.6671 36.5091C33.6671 37.6485 33.8801 38.7212 34.306 39.7273C34.732 40.7212 35.3117 41.5939 36.0453 42.3455C36.7788 43.097 37.6366 43.6909 38.6187 44.1273C39.6007 44.5636 40.6537 44.7818 41.7777 44.7818C42.8899 44.7818 43.937 44.5636 44.9191 44.1273C45.9129 43.6909 46.7707 43.097 47.4925 42.3455C48.226 41.5939 48.8058 40.7212 49.2317 39.7273C49.6577 38.7212 49.8706 37.6485 49.8706 36.5091Z" fill="#81BECB"/>
<path d="M77.2729 23.3636L68.9137 49.4364H63.8202L55.4966 23.3636H61.2823L66.3581 40.7636L71.4517 23.3636H77.2729Z" fill="#81BECB"/>
<path d="M84.8156 49.4364H79.722V23.3636H84.8156V49.4364Z" fill="#81BECB"/>
<path d="M107 49.4364H89.5542V23.3636H107V28.5818H94.6477V33.8H103.007V39.0182H94.6477V44.2182H107V49.4364Z" fill="#81BECB"/>
<path d="M5.36719 84.7598C5.36719 84.3066 5.20117 83.9473 4.86914 83.6816C4.54102 83.4121 4.07812 83.2773 3.48047 83.2773C2.98047 83.2773 2.56055 83.416 2.2207 83.6934C1.88477 83.9668 1.7168 84.3066 1.7168 84.7129H0.591797C0.591797 84.2598 0.714844 83.8535 0.960938 83.4941C1.21094 83.1348 1.55859 82.8555 2.00391 82.6562C2.44922 82.4531 2.94141 82.3516 3.48047 82.3516C4.43359 82.3516 5.17383 82.5664 5.70117 82.9961C6.22852 83.4219 6.49219 84.0156 6.49219 84.7773C6.49219 85.1719 6.37109 85.5312 6.12891 85.8555C5.88672 86.1797 5.54883 86.4355 5.11523 86.623C6.11914 86.959 6.62109 87.625 6.62109 88.6211C6.62109 89.3867 6.33594 89.9941 5.76562 90.4434C5.19531 90.8926 4.43359 91.1172 3.48047 91.1172C2.91406 91.1172 2.39844 91.0176 1.93359 90.8184C1.47266 90.6152 1.11328 90.3281 0.855469 89.957C0.597656 89.5859 0.46875 89.1445 0.46875 88.6328H1.59375C1.59375 89.082 1.77148 89.457 2.12695 89.7578C2.48242 90.0547 2.93359 90.2031 3.48047 90.2031C4.09375 90.2031 4.58203 90.0605 4.94531 89.7754C5.3125 89.4902 5.49609 89.1133 5.49609 88.6445C5.49609 87.6445 4.87695 87.1348 3.63867 87.1152H2.58398V86.1895H3.63281C4.20312 86.1777 4.63477 86.0488 4.92773 85.8027C5.2207 85.5566 5.36719 85.209 5.36719 84.7598ZM13.225 91H12.141V88.293H9.22891V91H8.13906V84.6602H9.22891V87.4082H12.141V84.6602H13.225V91ZM18.9852 91C18.9227 90.875 18.8719 90.6523 18.8328 90.332C18.3289 90.8555 17.7273 91.1172 17.0281 91.1172C16.4031 91.1172 15.8895 90.9414 15.4871 90.5898C15.0887 90.2344 14.8895 89.7852 14.8895 89.2422C14.8895 88.582 15.1395 88.0703 15.6395 87.707C16.1434 87.3398 16.8504 87.1562 17.7605 87.1562H18.8152V86.6582C18.8152 86.2793 18.702 85.9785 18.4754 85.7559C18.2488 85.5293 17.9148 85.416 17.4734 85.416C17.0867 85.416 16.7625 85.5137 16.5008 85.709C16.2391 85.9043 16.1082 86.1406 16.1082 86.418H15.0184C15.0184 86.1016 15.1297 85.7969 15.3523 85.5039C15.5789 85.207 15.8836 84.9727 16.2664 84.8008C16.6531 84.6289 17.077 84.543 17.5379 84.543C18.2684 84.543 18.8406 84.7266 19.2547 85.0938C19.6687 85.457 19.8836 85.959 19.8992 86.5996V89.5176C19.8992 90.0996 19.9734 90.5625 20.1219 90.9062V91H18.9852ZM17.1863 90.1738C17.5262 90.1738 17.8484 90.0859 18.1531 89.9102C18.4578 89.7344 18.6785 89.5059 18.8152 89.2246V87.9238H17.9656C16.6375 87.9238 15.9734 88.3125 15.9734 89.0898C15.9734 89.4297 16.0867 89.6953 16.3133 89.8867C16.5398 90.0781 16.8309 90.1738 17.1863 90.1738ZM24.3293 91.1172C23.4699 91.1172 22.7707 90.8359 22.2316 90.2734C21.6926 89.707 21.423 88.9512 21.423 88.0059V87.8066C21.423 87.1777 21.5422 86.6172 21.7805 86.125C22.0227 85.6289 22.3586 85.2422 22.7883 84.9648C23.2219 84.6836 23.6906 84.543 24.1945 84.543C25.0187 84.543 25.6594 84.8145 26.1164 85.3574C26.5734 85.9004 26.802 86.6777 26.802 87.6895V88.1406H22.507C22.5227 88.7656 22.7043 89.2715 23.052 89.6582C23.4035 90.041 23.8488 90.2324 24.3879 90.2324C24.7707 90.2324 25.0949 90.1543 25.3605 89.998C25.6262 89.8418 25.8586 89.6348 26.0578 89.377L26.7199 89.8926C26.1887 90.709 25.3918 91.1172 24.3293 91.1172ZM24.1945 85.4336C23.757 85.4336 23.3898 85.5938 23.093 85.9141C22.7961 86.2305 22.6125 86.6758 22.5422 87.25H25.718V87.168C25.6867 86.6172 25.5383 86.1914 25.2727 85.8906C25.007 85.5859 24.6477 85.4336 24.1945 85.4336ZM31.8121 89.5645L33.9684 84.6602H35.3219V91H34.2379V86.3887L32.1871 91H31.4371L29.3453 86.2891V91H28.2613V84.6602H29.6676L31.8121 89.5645ZM37.1328 92.6992L36.5176 92.2773C36.8848 91.7656 37.0762 91.2383 37.0918 90.6953V89.7168H38.1523V90.5664C38.1523 90.9609 38.0547 91.3555 37.8594 91.75C37.668 92.1445 37.4258 92.4609 37.1328 92.6992ZM47.4871 91H46.3973V88.7031C45.9207 88.8281 45.4324 88.8906 44.9324 88.8906C44.1395 88.8906 43.534 88.6875 43.116 88.2812C42.702 87.875 42.491 87.2969 42.4832 86.5469V84.6543H43.5672V86.582C43.5867 87.5273 44.0418 88 44.9324 88C45.4324 88 45.9207 87.9375 46.3973 87.8125V84.6602H47.4871V91ZM54.0383 85.5391H51.9113V91H50.8273V85.5391H48.7414V84.6602H54.0383V85.5391ZM54.6598 87.7715C54.6598 87.1504 54.7809 86.5918 55.023 86.0957C55.2691 85.5996 55.609 85.2168 56.0426 84.9473C56.4801 84.6777 56.9781 84.543 57.5367 84.543C58.4 84.543 59.0973 84.8418 59.6285 85.4395C60.1637 86.0371 60.4313 86.832 60.4313 87.8242V87.9004C60.4313 88.5176 60.3121 89.0723 60.0738 89.5645C59.8395 90.0527 59.5016 90.4336 59.0602 90.707C58.6227 90.9805 58.1188 91.1172 57.5484 91.1172C56.6891 91.1172 55.9918 90.8184 55.4566 90.2207C54.9254 89.623 54.6598 88.832 54.6598 87.8477V87.7715ZM55.7496 87.9004C55.7496 88.6035 55.9117 89.168 56.2359 89.5938C56.5641 90.0195 57.0016 90.2324 57.5484 90.2324C58.0992 90.2324 58.5367 90.0176 58.8609 89.5879C59.1852 89.1543 59.3473 88.5488 59.3473 87.7715C59.3473 87.0762 59.1813 86.5137 58.8492 86.084C58.5211 85.6504 58.0836 85.4336 57.5367 85.4336C57.0016 85.4336 56.5699 85.6465 56.2418 86.0723C55.9137 86.498 55.7496 87.1074 55.7496 87.9004ZM65.0668 91V84.6602H67.5395C68.3832 84.6602 69.0297 84.8086 69.4789 85.1055C69.932 85.3984 70.1586 85.8301 70.1586 86.4004C70.1586 86.6934 70.0707 86.959 69.8949 87.1973C69.7191 87.4316 69.4594 87.6113 69.1156 87.7363C69.4984 87.8262 69.8051 88.002 70.0355 88.2637C70.2699 88.5254 70.3871 88.8379 70.3871 89.2012C70.3871 89.7832 70.1723 90.2285 69.7426 90.5371C69.3168 90.8457 68.7133 91 67.932 91H65.0668ZM66.1508 88.2168V90.127H67.9437C68.3969 90.127 68.7348 90.043 68.9574 89.875C69.184 89.707 69.2973 89.4707 69.2973 89.166C69.2973 88.5332 68.8324 88.2168 67.9027 88.2168H66.1508ZM66.1508 87.3496H67.5512C68.5668 87.3496 69.0746 87.0527 69.0746 86.459C69.0746 85.8652 68.5941 85.5586 67.6332 85.5391H66.1508V87.3496ZM75.8367 91C75.7742 90.875 75.7234 90.6523 75.6844 90.332C75.1805 90.8555 74.5789 91.1172 73.8797 91.1172C73.2547 91.1172 72.741 90.9414 72.3387 90.5898C71.9402 90.2344 71.741 89.7852 71.741 89.2422C71.741 88.582 71.991 88.0703 72.491 87.707C72.9949 87.3398 73.702 87.1562 74.6121 87.1562H75.6668V86.6582C75.6668 86.2793 75.5535 85.9785 75.327 85.7559C75.1004 85.5293 74.7664 85.416 74.325 85.416C73.9383 85.416 73.6141 85.5137 73.3523 85.709C73.0906 85.9043 72.9598 86.1406 72.9598 86.418H71.8699C71.8699 86.1016 71.9812 85.7969 72.2039 85.5039C72.4305 85.207 72.7352 84.9727 73.118 84.8008C73.5047 84.6289 73.9285 84.543 74.3895 84.543C75.1199 84.543 75.6922 84.7266 76.1062 85.0938C76.5203 85.457 76.7352 85.959 76.7508 86.5996V89.5176C76.7508 90.0996 76.825 90.5625 76.9734 90.9062V91H75.8367ZM74.0379 90.1738C74.3777 90.1738 74.7 90.0859 75.0047 89.9102C75.3094 89.7344 75.5301 89.5059 75.6668 89.2246V87.9238H74.8172C73.4891 87.9238 72.825 88.3125 72.825 89.0898C72.825 89.4297 72.9383 89.6953 73.1648 89.8867C73.3914 90.0781 73.6824 90.1738 74.0379 90.1738ZM82.2004 89.5645L84.3566 84.6602H85.7102V91H84.6262V86.3887L82.5754 91H81.8254L79.7336 86.2891V91H78.6496V84.6602H80.0559L82.2004 89.5645ZM95.8184 91H94.7344V85.5566H91.8164V91H90.7266V84.6602H95.8184V91ZM97.3715 87.7715C97.3715 87.1504 97.4926 86.5918 97.7348 86.0957C97.9809 85.5996 98.3207 85.2168 98.7543 84.9473C99.1918 84.6777 99.6898 84.543 100.248 84.543C101.112 84.543 101.809 84.8418 102.34 85.4395C102.875 86.0371 103.143 86.832 103.143 87.8242V87.9004C103.143 88.5176 103.024 89.0723 102.786 89.5645C102.551 90.0527 102.213 90.4336 101.772 90.707C101.334 90.9805 100.83 91.1172 100.26 91.1172C99.4008 91.1172 98.7035 90.8184 98.1684 90.2207C97.6371 89.623 97.3715 88.832 97.3715 87.8477V87.7715ZM98.4613 87.9004C98.4613 88.6035 98.6234 89.168 98.9477 89.5938C99.2758 90.0195 99.7133 90.2324 100.26 90.2324C100.811 90.2324 101.248 90.0176 101.573 89.5879C101.897 89.1543 102.059 88.5488 102.059 87.7715C102.059 87.0762 101.893 86.5137 101.561 86.084C101.233 85.6504 100.795 85.4336 100.248 85.4336C99.7133 85.4336 99.2816 85.6465 98.9535 86.0723C98.6254 86.498 98.4613 87.1074 98.4613 87.9004ZM109.782 91H108.698V88.293H105.786V91H104.696V84.6602H105.786V87.4082H108.698V84.6602H109.782V91ZM116.984 87.9004C116.984 88.8652 116.763 89.6426 116.321 90.2324C115.88 90.8223 115.282 91.1172 114.529 91.1172C113.759 91.1172 113.154 90.873 112.712 90.3848V93.4375H111.628V84.6602H112.618L112.671 85.3633C113.113 84.8164 113.726 84.543 114.511 84.543C115.273 84.543 115.874 84.8301 116.316 85.4043C116.761 85.9785 116.984 86.7773 116.984 87.8008V87.9004ZM115.9 87.7773C115.9 87.0625 115.747 86.498 115.443 86.084C115.138 85.6699 114.72 85.4629 114.189 85.4629C113.532 85.4629 113.04 85.7539 112.712 86.3359V89.3652C113.036 89.9434 113.532 90.2324 114.2 90.2324C114.72 90.2324 115.132 90.0273 115.437 89.6172C115.745 89.2031 115.9 88.5898 115.9 87.7773ZM122.38 91C122.318 90.875 122.267 90.6523 122.228 90.332C121.724 90.8555 121.123 91.1172 120.423 91.1172C119.798 91.1172 119.285 90.9414 118.882 90.5898C118.484 90.2344 118.285 89.7852 118.285 89.2422C118.285 88.582 118.535 88.0703 119.035 87.707C119.539 87.3398 120.246 87.1562 121.156 87.1562H122.211V86.6582C122.211 86.2793 122.097 85.9785 121.871 85.7559C121.644 85.5293 121.31 85.416 120.869 85.416C120.482 85.416 120.158 85.5137 119.896 85.709C119.634 85.9043 119.504 86.1406 119.504 86.418H118.414C118.414 86.1016 118.525 85.7969 118.748 85.5039C118.974 85.207 119.279 84.9727 119.662 84.8008C120.048 84.6289 120.472 84.543 120.933 84.543C121.664 84.543 122.236 84.7266 122.65 85.0938C123.064 85.457 123.279 85.959 123.295 86.5996V89.5176C123.295 90.0996 123.369 90.5625 123.517 90.9062V91H122.38ZM120.582 90.1738C120.921 90.1738 121.244 90.0859 121.548 89.9102C121.853 89.7344 122.074 89.5059 122.211 89.2246V87.9238H121.361C120.033 87.9238 119.369 88.3125 119.369 89.0898C119.369 89.4297 119.482 89.6953 119.709 89.8867C119.935 90.0781 120.226 90.1738 120.582 90.1738ZM125.193 91V84.6602H127.666C128.51 84.6602 129.156 84.8086 129.605 85.1055C130.059 85.3984 130.285 85.8301 130.285 86.4004C130.285 86.6934 130.197 86.959 130.021 87.1973C129.846 87.4316 129.586 87.6113 129.242 87.7363C129.625 87.8262 129.932 88.002 130.162 88.2637C130.396 88.5254 130.514 88.8379 130.514 89.2012C130.514 89.7832 130.299 90.2285 129.869 90.5371C129.443 90.8457 128.84 91 128.059 91H125.193ZM126.277 88.2168V90.127H128.07C128.523 90.127 128.861 90.043 129.084 89.875C129.311 89.707 129.424 89.4707 129.424 89.166C129.424 88.5332 128.959 88.2168 128.029 88.2168H126.277ZM126.277 87.3496H127.678C128.693 87.3496 129.201 87.0527 129.201 86.459C129.201 85.8652 128.721 85.5586 127.76 85.5391H126.277V87.3496ZM136.151 84.6602H137.235V91H136.151V86.377L133.227 91H132.143V84.6602H133.227V89.2891L136.151 84.6602ZM143.786 85.5391H141.659V91H140.575V85.5391H138.489V84.6602H143.786V85.5391ZM147.015 90.2324C147.402 90.2324 147.739 90.1152 148.029 89.8809C148.318 89.6465 148.478 89.3535 148.509 89.002H149.534C149.515 89.3652 149.39 89.7109 149.159 90.0391C148.929 90.3672 148.62 90.6289 148.234 90.8242C147.851 91.0195 147.445 91.1172 147.015 91.1172C146.152 91.1172 145.464 90.8301 144.952 90.2559C144.445 89.6777 144.191 88.8887 144.191 87.8887V87.707C144.191 87.0898 144.304 86.541 144.53 86.0605C144.757 85.5801 145.081 85.207 145.503 84.9414C145.929 84.6758 146.431 84.543 147.009 84.543C147.72 84.543 148.31 84.7559 148.779 85.1816C149.251 85.6074 149.503 86.1602 149.534 86.8398H148.509C148.478 86.4297 148.321 86.0938 148.04 85.832C147.763 85.5664 147.419 85.4336 147.009 85.4336C146.458 85.4336 146.03 85.6328 145.726 86.0312C145.425 86.4258 145.275 86.998 145.275 87.748V87.9531C145.275 88.6836 145.425 89.2461 145.726 89.6406C146.027 90.0352 146.456 90.2324 147.015 90.2324ZM155.699 84.6602V91H154.609V88.5332H152.974L151.48 91H150.308L151.902 88.3691C151.496 88.2207 151.183 87.9922 150.964 87.6836C150.75 87.3711 150.642 87.0078 150.642 86.5938C150.642 86.0156 150.859 85.5508 151.293 85.1992C151.726 84.8438 152.306 84.6641 153.033 84.6602H155.699ZM151.732 86.6055C151.732 86.9141 151.837 87.1641 152.048 87.3555C152.259 87.543 152.539 87.6387 152.886 87.6426H154.609V85.5391H153.05C152.648 85.5391 152.328 85.6387 152.089 85.8379C151.851 86.0332 151.732 86.2891 151.732 86.6055Z" fill="#81BECB"/>
</svg>
